# xmcd
#
# Track frame offsets:
#	150
#	20080
#	42025
#	59547
#	79132
#	99565
#	122222
#	140050
#	161470
#	176852
#
# Disc length: 2574 seconds
#
# Revision: 0
# Processed by: cddbd v1.5.2PL0 Copyright (c) Steve Scherf et al.
# Submitted via: audiograbber 1.83.01
#
DISCID=8b0a0c0a
DTITLE=The Son - Nhung Tinh Khuc Chon Loc
DYEAR=1998
DGENRE=
TTITLE0=Sa Mac Tuoi Tre
TTITLE1=Lien Khuc 10 Nam Tinh Cu
TTITLE2=Tinh Anh Ngon Nen
TTITLE3=Cho Toi Yeu Mot Lan
TTITLE4=Xa Roi Tuoi Tho
TTITLE5=Toi Muon Quen Nguoi
TTITLE6=Da Khuc
TTITLE7=Hoi Nguoi Con Nho Den Ta
TTITLE8=Tinh Chua Kip Noi
TTITLE9=Lac Mat Nhau
EXTD=
EXTT0=
EXTT1=
EXTT2=
EXTT3=
EXTT4=
EXTT5=
EXTT6=
EXTT7=
EXTT8=
EXTT9=
PLAYORDER=
